# xmcd
#
# Track frame offsets: 
#        150
#        27888
#        46832
#        66022
#        81461
#        98060
#        120201
#        140117
#        156400
#
# Disc length: 2551 seconds
#
# Revision: 0
# Processed by: cddbd v1.5.2PL0 Copyright (c) Steve Scherf et al.
# Submitted via: ExactAudioCopy v0.99pb5
#
DISCID=7209f509
DTITLE=Marcel and Beyond the Sun - Black Coffee
DYEAR=2009
DGENRE=Blues
TTITLE0=Black Coffee
TTITLE1=I've Got To See You Again
TTITLE2=Days Of Wine And Roses
TTITLE3=Chitlins Con Carne
TTITLE4=Why Don't You Do Right?
TTITLE5=The Way He Moves Me
TTITLE6=I Wish
TTITLE7=Brazill
TTITLE8=Crystal Silence
EXTD=
EXTT0=
EXTT1=
EXTT2=
EXTT3=
EXTT4=
EXTT5=
EXTT6=
EXTT7=
EXTT8=
PLAYORDER=
